{"title":"[Dhamal Rip] Dulha Mil Gaya (2010) Repack DVD Rip [Dare DEvils]","uid":5378352,"size":935322386,"categoryP":"video","categoryS":"movies","magnet":"?xt=urn:btih:6b38b6365e3501fe135b3a911ef00ab0bb713ca8&amp;dn=%5BDhamal+Rip%5D+Dulha+Mil+Gaya+%282010%29+Repack+DVD+Rip+%5BDare+DEvils%5D&amp;tr=udp%3A%2F%2Ftracker.openbittorrent.com%3A80&amp;tr=udp%3A%2F%2Fopen.demonii.com%3A1337&amp;tr=udp%3A%2F%2Ftracker.coppersurfer.tk%3A6969&amp;tr=udp%3A%2F%2Fexodus.desync.com%3A6969","seeders":0,"leechers":0,"uploader":"luvwithromio","files":-1,"time":1266652871,"description":"Format                           : AVI\nFormat/Info                      : Audio Video Interleave\nFile size                        : 892 MiB\nDuration                         : 2h 25mn\nOverall bit rate                 : 855 Kbps\n\nVideo\nID                               : 0\nFormat                           : MPEG-4 Visual\nFormat profile                   : Simple@L1\nFormat settings, BVOP            : No\nFormat settings, QPel            : No\nFormat settings, GMC             : No warppoints\nFormat settings, Matrix          : Default (MPEG)\nCodec ID                         : DX50\nCodec ID/Hint                    : DivX 5\nDuration                         : 2h 25mn\nBit rate                         : 746 Kbps\nWidth                            : 640 pixels\nHeight                           : 324 pixels\nDisplay aspect ratio             : 1.975\nFrame rate                       : 23.976 fps\nResolution                       : 8 bits\nColorimetry                      : 4:2:0\nScan type                        : Progressive\nBits/(Pixel*Frame)               : 0.150\nStream size                      : 778 MiB (87%)\nWriting library                  : Lavc51.40.4\n\nAudio\nID                               : 1\nFormat                           : MPEG Audio\nFormat version                   : Version 1\nFormat profile                   : Layer 3\nCodec ID                         : 55\nCodec ID/Hint                    : MP3\nDuration                         : 2h 25mn\nBit rate mode                    : Constant\nBit rate                         : 96.0 Kbps\nChannel(s)                       : 2 channels\nSampling rate                    : 48.0 KHz\nStream size                      : 100 MiB (11%)\nAlignment                        : Split accross interleaves\nInterleave, duration             : 24 ms (0.58 video frame)","torrent":{"xt":"urn:btih:6b38b6365e3501fe135b3a911ef00ab0bb713ca8","amp;dn":"%5BDhamal+Rip%5D+Dulha+Mil+Gaya+%282010%29+Repack+DVD+Rip+%5BDare+DEvils%5D","amp;tr":["udp%3A%2F%2Ftracker.openbittorrent.com%3A80","udp%3A%2F%2Fopen.demonii.com%3A1337","udp%3A%2F%2Ftracker.coppersurfer.tk%3A6969","udp%3A%2F%2Fexodus.desync.com%3A6969"],"infoHash":"6b38b6365e3501fe135b3a911ef00ab0bb713ca8","infoHashBuffer":{"type":"Buffer","data":[107,56,182,54,94,53,1,254,19,91,58,145,30,240,10,176,187,113,60,168]},"announce":[],"urlList":[]}}